<svg xmlns="http://www.w3.org/2000/svg" xmlns:xlink="http://www.w3.org/1999/xlink" width="1080" zoomAndPan="magnify" viewBox="0 0 810 809.999993" height="1080" preserveAspectRatio="xMidYMid meet" version="1.0"><defs><g/></defs><g fill="#ffffff" fill-opacity="1"><g transform="translate(104.812498, 484.874996)"><g><path d="M 20.9375 -203.75 C 20.9375 -206.351562 21.679688 -208.398438 23.171875 -209.890625 C 24.660156 -211.378906 26.707031 -212.125 29.3125 -212.125 L 65.59375 -212.125 C 68.195312 -212.125 70.242188 -211.378906 71.734375 -209.890625 C 73.222656 -208.398438 73.96875 -206.351562 73.96875 -203.75 L 73.96875 -8.375 C 73.96875 -5.769531 73.222656 -3.722656 71.734375 -2.234375 C 70.242188 -0.742188 68.195312 0 65.59375 0 L 29.3125 0 C 26.707031 0 24.660156 -0.742188 23.171875 -2.234375 C 21.679688 -3.722656 20.9375 -5.769531 20.9375 -8.375 Z M 20.9375 -203.75 "/></g></g></g><g fill="#ffffff" fill-opacity="1"><g transform="translate(199.708036, 484.874996)"><g><path d="M 119.453125 -144.859375 C 136.941406 -144.859375 150.617188 -139.367188 160.484375 -128.390625 C 170.347656 -117.410156 175.28125 -100.195312 175.28125 -76.75 L 175.28125 -8.375 C 175.28125 -5.769531 174.535156 -3.722656 173.046875 -2.234375 C 171.554688 -0.742188 169.507812 0 166.90625 0 L 130.625 0 C 128.019531 0 125.972656 -0.742188 124.484375 -2.234375 C 122.992188 -3.722656 122.25 -5.769531 122.25 -8.375 L 122.25 -69.78125 C 122.25 -78.707031 120.15625 -86.238281 115.96875 -92.375 C 111.78125 -98.519531 105.40625 -101.59375 96.84375 -101.59375 C 86.988281 -101.59375 80.242188 -98.195312 76.609375 -91.40625 C 72.984375 -84.613281 71.171875 -75.078125 71.171875 -62.796875 L 71.171875 -8.375 C 71.171875 -5.769531 70.425781 -3.722656 68.9375 -2.234375 C 67.445312 -0.742188 65.398438 0 62.796875 0 L 26.515625 0 C 23.910156 0 21.863281 -0.742188 20.375 -2.234375 C 18.882812 -3.722656 18.140625 -5.769531 18.140625 -8.375 L 18.140625 -131.1875 C 18.140625 -133.789062 18.882812 -135.835938 20.375 -137.328125 C 21.863281 -138.816406 23.910156 -139.5625 26.515625 -139.5625 L 60.5625 -139.5625 C 63.164062 -139.5625 65.210938 -138.953125 66.703125 -137.734375 C 68.191406 -136.523438 69.726562 -134.335938 71.3125 -131.171875 C 72.894531 -128.015625 74.613281 -124.296875 76.46875 -120.015625 C 86.144531 -136.578125 100.472656 -144.859375 119.453125 -144.859375 Z M 119.453125 -144.859375 "/></g></g></g><g fill="#ffffff" fill-opacity="1"><g transform="translate(393.127461, 484.874996)"><g><path d="M 45.78125 -159.65625 C 38.144531 -159.65625 31.628906 -162.351562 26.234375 -167.75 C 20.835938 -173.144531 18.140625 -179.65625 18.140625 -187.28125 C 18.140625 -194.90625 20.835938 -201.414062 26.234375 -206.8125 C 31.628906 -212.21875 38.144531 -214.921875 45.78125 -214.921875 C 53.40625 -214.921875 59.914062 -212.21875 65.3125 -206.8125 C 70.707031 -201.414062 73.40625 -194.90625 73.40625 -187.28125 C 73.40625 -179.65625 70.707031 -173.144531 65.3125 -167.75 C 59.914062 -162.351562 53.40625 -159.65625 45.78125 -159.65625 Z M 19.265625 -131.1875 C 19.265625 -133.789062 20.003906 -135.835938 21.484375 -137.328125 C 22.972656 -138.816406 25.019531 -139.5625 27.625 -139.5625 L 63.921875 -139.5625 C 66.523438 -139.5625 68.570312 -138.816406 70.0625 -137.328125 C 71.550781 -135.835938 72.296875 -133.789062 72.296875 -131.1875 L 72.296875 -8.375 C 72.296875 -5.769531 71.550781 -3.722656 70.0625 -2.234375 C 68.570312 -0.742188 66.523438 0 63.921875 0 L 27.625 0 C 25.019531 0 22.972656 -0.742188 21.484375 -2.234375 C 20.003906 -3.722656 19.265625 -5.769531 19.265625 -8.375 Z M 19.265625 -131.1875 "/></g></g></g><g fill="#ffffff" fill-opacity="1"><g transform="translate(484.673737, 484.874996)"><g><path d="M 89.03125 -58.609375 C 89.03125 -52.472656 90.425781 -48.101562 93.21875 -45.5 C 96.007812 -42.894531 100.382812 -41.59375 106.34375 -41.59375 C 108.757812 -41.59375 110.847656 -41.867188 112.609375 -42.421875 C 114.378906 -42.984375 115.453125 -43.359375 115.828125 -43.546875 C 116.390625 -43.722656 117.132812 -43.8125 118.0625 -43.8125 C 120.664062 -43.8125 121.96875 -42.507812 121.96875 -39.90625 L 121.96875 -10.328125 C 121.96875 -8.273438 121.222656 -6.597656 119.734375 -5.296875 C 116.390625 -2.691406 111.273438 -0.460938 104.390625 1.390625 C 97.503906 3.253906 90.335938 4.1875 82.890625 4.1875 C 71.910156 4.1875 62.929688 2.375 55.953125 -1.25 C 48.984375 -4.882812 43.773438 -11.070312 40.328125 -19.8125 C 36.890625 -28.5625 35.171875 -40.378906 35.171875 -55.265625 L 35.171875 -90.15625 L 15.34375 -90.15625 C 14.039062 -90.15625 13.019531 -90.523438 12.28125 -91.265625 C 11.539062 -92.015625 11.171875 -93.039062 11.171875 -94.34375 L 11.171875 -131.734375 C 11.171875 -133.222656 11.726562 -134.4375 12.84375 -135.375 C 19.539062 -140.769531 26.050781 -145.929688 32.375 -150.859375 C 38.695312 -155.785156 44.742188 -160.484375 50.515625 -164.953125 C 49.023438 -163.835938 56.375 -169.515625 72.5625 -181.984375 C 76.65625 -185.140625 80.097656 -186.71875 82.890625 -186.71875 C 84.566406 -186.71875 86.007812 -186.160156 87.21875 -185.046875 C 88.425781 -183.929688 89.03125 -182.257812 89.03125 -180.03125 L 89.03125 -138.71875 L 121.40625 -138.71875 C 122.707031 -138.71875 123.726562 -138.34375 124.46875 -137.59375 C 125.21875 -136.851562 125.59375 -135.832031 125.59375 -134.53125 L 125.59375 -94.34375 C 125.59375 -93.039062 125.21875 -92.015625 124.46875 -91.265625 C 123.726562 -90.523438 122.707031 -90.15625 121.40625 -90.15625 L 89.03125 -90.15625 Z M 89.03125 -58.609375 "/></g></g></g><g fill="#1271ff" fill-opacity="1"><g transform="translate(620.050757, 484.874996)"><g><path d="M 42.984375 6.703125 C 34.984375 6.703125 28.144531 3.863281 22.46875 -1.8125 C 16.789062 -7.488281 13.953125 -14.328125 13.953125 -22.328125 C 13.953125 -29.953125 16.789062 -36.554688 22.46875 -42.140625 C 28.144531 -47.722656 34.984375 -50.515625 42.984375 -50.515625 C 50.609375 -50.515625 57.210938 -47.722656 62.796875 -42.140625 C 68.378906 -36.554688 71.171875 -29.953125 71.171875 -22.328125 C 71.171875 -14.328125 68.378906 -7.488281 62.796875 -1.8125 C 57.210938 3.863281 50.609375 6.703125 42.984375 6.703125 Z M 42.984375 6.703125 "/></g></g></g></svg>